<?xml version="1.0" encoding="iso-8859-1"?>
<!-- Generator: Adobe Illustrator 19.0.0, SVG Export Plug-In . SVG Version: 6.00 Build 0)  -->
<svg version="1.1" id="Layer_1" xmlns="http://www.w3.org/2000/svg" xmlns:xlink="http://www.w3.org/1999/xlink" x="0px" y="0px"
	 viewBox="0 0 512 512" style="enable-background:new 0 0 512 512;" xml:space="preserve">
<path style="fill:#507C5C;" d="M255.998,440.77c-3.747,0-7.351-1.497-10-4.175c-6.054-6.121-148.263-151.371-148.263-278.329
	C97.735,70.997,168.732,0,255.999,0s158.266,70.997,158.266,158.266c0,7.769-6.299,14.067-14.067,14.067
	s-14.067-6.298-14.067-14.067c0-71.754-58.377-130.132-130.132-130.132S125.867,86.512,125.867,158.266
	c0,96.242,96.293,210.594,129.242,246.897c20.702-26.513,68.858-90.041,100.77-146.828c3.807-6.773,12.38-9.176,19.155-5.372
	c6.772,3.807,9.177,12.382,5.371,19.155c-42.584,75.777-110.607,159.905-113.481,163.448c-2.519,3.105-6.242,4.991-10.234,5.188
	C256.459,440.765,256.229,440.77,255.998,440.77z"/>
<path style="fill:#CFF09E;" d="M299.224,370.102c-24.213,33.161-43.225,56.601-43.225,56.601s-20.804-21.041-46.602-53.844
	c-15.077,13.061-24.627,32.33-24.627,53.844c0,39.338,31.891,71.23,71.23,71.23s71.23-31.891,71.23-71.23
	C327.229,403.622,316.243,383.118,299.224,370.102z"/>
<path style="fill:#507C5C;" d="M255.999,512c-47.033,0-85.297-38.264-85.297-85.297c0-24.745,10.747-48.245,29.483-64.476
	c2.908-2.518,6.711-3.735,10.549-3.37c3.829,0.366,7.342,2.283,9.719,5.306c13.838,17.594,26.28,31.808,34.651,41.015
	c7.82-10.006,19.543-25.273,32.758-43.371c2.232-3.057,5.601-5.085,9.348-5.627c3.756-0.542,7.554,0.449,10.56,2.749
	c21.306,16.295,33.526,40.998,33.526,67.776C341.296,473.735,303.032,512,255.999,512z M208.767,394.535
	c-6.409,9.398-9.93,20.581-9.93,32.168c0,31.52,25.643,57.163,57.163,57.163s57.163-25.643,57.163-57.163
	c0-13.039-4.327-25.346-12.176-35.293c-19.471,26.138-33.894,43.949-34.06,44.153c-2.519,3.106-6.242,4.992-10.234,5.188
	c-3.968,0.205-7.883-1.315-10.695-4.16C245.245,435.833,229.694,420.046,208.767,394.535z"/>
<circle style="fill:#CFF09E;" cx="256.005" cy="158.268" r="77.945"/>
<g>
	<path style="fill:#507C5C;" d="M255.999,250.277c-50.734,0-92.011-41.277-92.011-92.012s41.277-92.012,92.011-92.012
		s92.011,41.277,92.011,92.012S306.735,250.277,255.999,250.277z M255.999,94.388c-35.222,0-63.877,28.656-63.877,63.878
		s28.654,63.878,63.877,63.878s63.877-28.656,63.877-63.878S291.222,94.388,255.999,94.388z"/>
	<path style="fill:#507C5C;" d="M368.14,279.291c-3.431,0-6.872-1.248-9.582-3.77l-56.396-52.491
		c-5.686-5.293-6.007-14.194-0.713-19.881c5.293-5.687,14.195-6.008,19.882-0.713l56.396,52.491
		c5.686,5.293,6.007,14.194,0.713,19.881C375.67,277.786,371.91,279.291,368.14,279.291z"/>
</g>
<g>
</g>
<g>
</g>
<g>
</g>
<g>
</g>
<g>
</g>
<g>
</g>
<g>
</g>
<g>
</g>
<g>
</g>
<g>
</g>
<g>
</g>
<g>
</g>
<g>
</g>
<g>
</g>
<g>
</g>
</svg>
