<svg xmlns="http://www.w3.org/2000/svg" x="0px" y="0px"
width="48" height="48"
viewBox="0 0 172 172"
style=" fill:#000000;">
<g transform="translate(0.516,0.516) scale(0.994,0.994)">
<g fill="none" fill-rule="nonzero" stroke="none" stroke-width="1" stroke-linecap="butt" stroke-linejoin="none" stroke-miterlimit="10" stroke-dasharray="" stroke-dashoffset="0" font-family="none" font-weight="none" font-size="none" text-anchor="none" style="mix-blend-mode: normal">
<g stroke="#d22828" stroke-linejoin="round">
<path d="M86,129c-17.91667,0 -17.91667,-21.5 -17.91667,-21.5v-21.5h35.83333v21.5c0,0 0,21.5 -17.91667,21.5z" fill="#ff9800"></path>
<path d="M125.41667,64.5c0,3.94167 -3.225,7.16667 -7.16667,7.16667c-3.94167,0 -7.16667,-3.225 -7.16667,-7.16667c0,-3.94167 3.225,-7.16667 7.16667,-7.16667c3.94167,0 7.16667,3.225 7.16667,7.16667M60.91667,64.5c0,3.94167 -3.225,7.16667 -7.16667,7.16667c-3.94167,0 -7.16667,-3.225 -7.16667,-7.16667c0,-3.94167 3.225,-7.16667 7.16667,-7.16667c3.94167,0 7.16667,3.225 7.16667,7.16667" fill="#ffa726"></path><path d="M118.25,68.08333c0,17.91667 -14.33333,32.25 -32.25,32.25c-17.91667,0 -32.25,-14.33333 -32.25,-32.25v-25.08333c0,-17.91667 64.5,-27.23333 64.5,0z" fill="#ffb74d"></path><path d="M96.75,10.75l3.58333,7.16667c17.91667,3.58333 21.5,17.91667 21.5,32.25v8.24167l-7.16667,6.09167v-17.91667l-14.33333,-14.33333l-43,14.33333v17.91667l-7.16667,-6.09167v-8.24167c0,-21.85833 13.975,-39.41667 35.83333,-39.41667z" fill="#424242"></path><path d="M96.75,64.5c0,-2.15 1.43333,-3.58333 3.58333,-3.58333c2.15,0 3.58333,1.43333 3.58333,3.58333c0,2.15 -1.43333,3.58333 -3.58333,3.58333c-2.15,0 -3.58333,-1.43333 -3.58333,-3.58333M68.08333,64.5c0,-2.15 1.43333,-3.58333 3.58333,-3.58333c2.15,0 3.58333,1.43333 3.58333,3.58333c0,2.15 -1.43333,3.58333 -3.58333,3.58333c-2.15,0 -3.58333,-1.43333 -3.58333,-3.58333" fill="#784719"></path><path d="M143.33333,154.08333v10.75h-114.66667v-10.75c0,-39.41667 39.41667,-46.58333 39.41667,-46.58333c0,0 3.58333,14.33333 17.91667,14.33333c14.33333,0 17.91667,-14.33333 17.91667,-14.33333c0,0 39.41667,7.16667 39.41667,46.58333z" fill="#8bc34a"></path><path d="M103.91667,143.33333h-0.35833c-1.79167,-0.35833 -3.225,-2.15 -3.225,-3.94167l3.58333,-32.25c0.35833,-1.79167 2.15,-3.225 3.94167,-3.225c1.79167,0.35833 3.225,2.15 3.225,3.94167l-3.58333,32.25c-0.35833,1.79167 -1.79167,3.225 -3.58333,3.225zM68.08333,143.33333c-1.79167,0 -3.225,-1.43333 -3.58333,-3.225l-3.58333,-32.25c-0.35833,-1.79167 1.075,-3.58333 3.225,-3.94167c1.79167,-0.35833 3.58333,1.075 3.94167,3.225l3.58333,32.25c0.35833,1.79167 -1.075,3.58333 -3.225,3.94167z" fill="#388e3c"></path><path d="M100.33333,140.46667h-28.66667l6.09167,-9.675c0.71667,-1.075 1.79167,-1.79167 2.86667,-1.79167h10.39167c1.075,0 2.50833,0.71667 2.86667,1.79167z" fill="#512da8"></path><path d="M107.5,161.25c0,2.15 -1.43333,3.58333 -3.58333,3.58333h-35.83333c-2.15,0 -3.58333,-1.43333 -3.58333,-3.58333v-21.5c0,-2.15 1.43333,-3.58333 3.58333,-3.58333h35.83333c2.15,0 3.58333,1.43333 3.58333,3.58333z" fill="#5e35b1"></path><path d="M78.83333,150.5c0,-3.94167 3.225,-7.16667 7.16667,-7.16667c3.94167,0 7.16667,3.225 7.16667,7.16667c0,3.94167 -3.225,7.16667 -7.16667,7.16667c-3.94167,0 -7.16667,-3.225 -7.16667,-7.16667" fill="#b388ff"></path></g><path d="M0,172v-172h172v172z" fill="none" stroke="none" stroke-linejoin="miter"></path><g stroke="none" stroke-linejoin="miter"><path d="M86,129c-17.91667,0 -17.91667,-21.5 -17.91667,-21.5v-21.5h35.83333v21.5c0,0 0,21.5 -17.91667,21.5z" fill="#ff9800"></path><path d="M125.41667,64.5c0,3.94167 -3.225,7.16667 -7.16667,7.16667c-3.94167,0 -7.16667,-3.225 -7.16667,-7.16667c0,-3.94167 3.225,-7.16667 7.16667,-7.16667c3.94167,0 7.16667,3.225 7.16667,7.16667M60.91667,64.5c0,-3.94167 -3.225,-7.16667 -7.16667,-7.16667c-3.94167,0 -7.16667,3.225 -7.16667,7.16667c0,3.94167 3.225,7.16667 7.16667,7.16667c3.94167,0 7.16667,-3.225 7.16667,-7.16667" fill="#ffa726"></path><path d="M118.25,43c0,-27.23333 -64.5,-17.91667 -64.5,0v25.08333c0,17.91667 14.33333,32.25 32.25,32.25c17.91667,0 32.25,-14.33333 32.25,-32.25z" fill="#ffb74d"></path><path d="M86,10.75c-21.85833,0 -35.83333,17.55833 -35.83333,39.41667v8.24167l7.16667,6.09167v-17.91667l43,-14.33333l14.33333,14.33333v17.91667l7.16667,-6.09167v-8.24167c0,-14.33333 -3.58333,-28.66667 -21.5,-32.25l-3.58333,-7.16667z" fill="#424242"></path><path d="M96.75,64.5c0,-2.15 1.43333,-3.58333 3.58333,-3.58333c2.15,0 3.58333,1.43333 3.58333,3.58333c0,2.15 -1.43333,3.58333 -3.58333,3.58333c-2.15,0 -3.58333,-1.43333 -3.58333,-3.58333M68.08333,64.5c0,2.15 1.43333,3.58333 3.58333,3.58333c2.15,0 3.58333,-1.43333 3.58333,-3.58333c0,-2.15 -1.43333,-3.58333 -3.58333,-3.58333c-2.15,0 -3.58333,1.43333 -3.58333,3.58333" fill="#784719"></path><path d="M103.91667,107.5c0,0 -3.58333,14.33333 -17.91667,14.33333c-14.33333,0 -17.91667,-14.33333 -17.91667,-14.33333c0,0 -39.41667,7.16667 -39.41667,46.58333v10.75h114.66667v-10.75c0,-39.41667 -39.41667,-46.58333 -39.41667,-46.58333z" fill="#8bc34a"></path><path d="M103.91667,143.33333h-0.35833c-1.79167,-0.35833 -3.225,-2.15 -3.225,-3.94167l3.58333,-32.25c0.35833,-1.79167 2.15,-3.225 3.94167,-3.225c1.79167,0.35833 3.225,2.15 3.225,3.94167l-3.58333,32.25c-0.35833,1.79167 -1.79167,3.225 -3.58333,3.225zM68.08333,143.33333c-1.79167,0 -3.225,-1.43333 -3.58333,-3.225l-3.58333,-32.25c-0.35833,-1.79167 1.075,-3.58333 3.225,-3.94167c1.79167,-0.35833 3.58333,1.075 3.94167,3.225l3.58333,32.25c0.35833,1.79167 -1.075,3.58333 -3.225,3.94167z" fill="#388e3c"></path><path d="M100.33333,140.46667h-28.66667l6.09167,-9.675c0.71667,-1.075 1.79167,-1.79167 2.86667,-1.79167h10.39167c1.075,0 2.50833,0.71667 2.86667,1.79167z" fill="#512da8"></path><path d="M107.5,161.25c0,2.15 -1.43333,3.58333 -3.58333,3.58333h-35.83333c-2.15,0 -3.58333,-1.43333 -3.58333,-3.58333v-21.5c0,-2.15 1.43333,-3.58333 3.58333,-3.58333h35.83333c2.15,0 3.58333,1.43333 3.58333,3.58333z" fill="#5e35b1"></path><path d="M78.83333,150.5c0,-3.94167 3.225,-7.16667 7.16667,-7.16667c3.94167,0 7.16667,3.225 7.16667,7.16667c0,3.94167 -3.225,7.16667 -7.16667,7.16667c-3.94167,0 -7.16667,-3.225 -7.16667,-7.16667" fill="#b388ff"></path></g>
<path d="" fill="none" stroke="none" stroke-linejoin="miter"></path>
<path d="" fill="none" stroke="none" stroke-linejoin="miter"></path>
</g></g></svg>